Coordinates
version=1
nRows=5
nColumns=55
inDegrees=yes

Units are S.I. units (second, meters, Newtons, ...)
If the header above contains a line with 'inDegrees', this indicates whether rotational values are in degrees (yes) or radians (no).

endheader
time	pelvis_tilt	pelvis_list	pelvis_rotation	pelvis_tx	pelvis_ty	pelvis_tz	hip_flexion_r	hip_adduction_r	hip_rotation_r	knee_angle_r	knee_angle_r_beta	ankle_angle_r	subtalar_angle_r	mtp_angle_r	hip_flexion_l	hip_adduction_l	hip_rotation_l	knee_angle_l	knee_angle_l_beta	ankle_angle_l	subtalar_angle_l	mtp_angle_l	lumbar_extension	lumbar_bending	lumbar_rotation	torso_tx	torso_ty	torso_tz	arm_flex_r	arm_add_r	arm_rot_r	shoulder_rx	shoulder_ry	shoulder_rz	elbow_flex_r	pro_sup_r	wrist_flex_r	wrist_dev_r	arm_flex_l	arm_add_l	arm_rot_l	shoulder_lx	shoulder_ly	shoulder_lz	elbow_flex_l	pro_sup_l	wrist_flex_l	wrist_dev_l	neck_extension	neck_bending	neck_rotation	head_tx	head_ty	head_tz
      6.22000000	      5.90919947	     -0.03673769	     -1.48078627	      0.36881983	      0.95375961	     -0.17899208	     -8.75660370	     -8.86489611	    -13.74722186	      0.36133416	      0.00630647	      4.67827534	     19.19492002	      1.09639993	     -8.32067595	     -7.72721362	    -17.80826157	      0.68261014	      0.01191379	      3.03819240	     13.56206885	      1.76311968	     -3.40568327	     -1.33328834	      2.74398375	      0.08708764	      0.01868588	     -0.00117316	     -9.73607395	    -17.16114108	     19.92762794	     -0.02411459	     -0.04356355	     -0.02133984	     20.12678066	     10.77179321	      1.67420737	    -29.29392152	     -3.60455639	    -14.14593082	     38.54322658	     -0.01234051	     -0.05215164	      0.01605137	     20.37543703	     15.21393430	      1.21290152	    -17.57331385	     22.21246014	      0.15016744	      0.58729798	      0.01611687	      0.02077775	      0.00027714
      6.23000000	      5.90674890	     -0.03045858	     -1.47841227	      0.36876841	      0.95366265	     -0.17900985	     -8.75635510	     -8.87459431	    -13.75007900	      0.36348429	      0.00634400	      4.67772901	     19.19550702	      1.09730371	     -8.31941144	     -7.71071186	    -17.80959301	      0.68246051	      0.01191118	      3.04027436	     13.56803198	      1.76402379	     -3.41273845	     -1.29871044	      2.73960437	      0.08695609	      0.01868190	     -0.00147777	     -9.74291902	    -17.07555708	     19.95160374	     -0.02417033	     -0.04397327	     -0.02294872	     20.13893069	     10.77702800	      1.67298354	    -29.29462067	     -3.61897247	    -14.13085034	     38.55714301	     -0.01264011	     -0.05202883	      0.01633143	     20.38039341	     15.21716267	      1.21264971	    -17.57758082	     22.21273158	      0.15039375	      0.58080666	      0.01619220	      0.02072445	      0.00037579
      6.24000000	      5.91029197	     -0.02650826	     -1.47847080	      0.36865587	      0.95368534	     -0.17929572	     -8.75568798	     -8.87457063	    -13.75028770	      0.36361294	      0.00634624	      4.67764085	     19.19566361	      1.09739811	     -8.31886441	     -7.71022375	    -17.80970199	      0.68225261	      0.01190755	      3.04050700	     13.56856905	      1.76410344	     -3.41175210	     -1.29387238	      2.73957239	      0.08679573	      0.01870040	     -0.00164536	     -9.74382013	    -17.06315496	     19.95470324	     -0.02418767	     -0.04403209	     -0.02320224	     20.14120558	     10.77775568	      1.67295891	    -29.29451335	     -3.62164506	    -14.12916472	     38.55866586	     -0.01272110	     -0.05199890	      0.01634684	     20.38085583	     15.21752708	      1.21263552	    -17.57797961	     22.21292880	      0.15040476	      0.58018928	      0.01617781	      0.02072158	      0.00038429
      6.25000000	      5.90823140	     -0.01514681	     -1.46996831	      0.36877684	      0.95370080	     -0.17949501	     -8.75183048	     -8.90576652	    -13.75489560	      0.36566001	      0.00638197	      4.67544263	     19.19682216	      1.09901777	     -8.31587667	     -7.67311258	    -17.80970454	      0.68277520	      0.01191668	      3.04270128	     13.58005138	      1.76550302	     -3.42819090	     -1.21708880	      2.73785725	      0.08652754	      0.01888564	     -0.00170272	     -9.75287935	    -16.87229442	     20.00644436	     -0.02411577	     -0.04430237	     -0.02533398	     20.18316253	     10.79009694	      1.67306539	    -29.29233890	     -3.65824170	    -14.07992006	     38.58743371	     -0.01337851	     -0.05201243	      0.01688614	     20.39942548	     15.22543623	      1.21354062	    -17.58468953	     22.21571976	      0.14741996	      0.56998508	      0.01607794	      0.02061180	      0.00021466
      6.26000000	      5.90694589	      0.00622321	     -1.45905699	      0.36884928	      0.95372368	     -0.17967450	     -8.74593929	     -8.93675041	    -13.76105997	      0.37092652	      0.00647389	      4.67063359	     19.20069379	      1.10167090	     -8.31975010	     -7.65036578	    -17.80886775	      0.68240842	      0.01191027	      3.04640149	     13.59736076	      1.76739912	     -3.44170710	     -1.14933782	      2.73438371	      0.08627129	      0.01893315	     -0.00188542	     -9.76682151	    -16.61274284	     20.08516471	     -0.02397712	     -0.04420547	     -0.02574458	     20.24644462	     10.80854280	      1.67327999	    -29.28882779	     -3.70643282	    -14.00810267	     38.63259875	     -0.01383440	     -0.05194462	      0.01668425	     20.43522142	     15.23920695	      1.21573483	    -17.59656071	     22.22091301	      0.13984190	      0.55419998	      0.01584335	      0.02049691	     -0.00022808
